<svg xmlns="http://www.w3.org/2000/svg" xmlns:xlink="http://www.w3.org/1999/xlink" version="1.1" x="0px" y="0px" viewBox="0 0 100 125" enable-background="new 0 0 100 100" xml:space="preserve"><path d="M17.399,71.312c-1.931,0-3.501-1.57-3.501-3.5c0-1.93,1.57-3.5,3.501-3.5c1.93,0,3.499,1.57,3.499,3.5  C20.898,69.743,19.329,71.312,17.399,71.312z M17.399,66.312c-0.827,0-1.501,0.673-1.501,1.5c0,0.827,0.674,1.5,1.501,1.5  c0.826,0,1.499-0.673,1.499-1.5C18.898,66.986,18.226,66.312,17.399,66.312z M42.399,71.312c-1.931,0-3.501-1.57-3.501-3.5  c0-1.93,1.57-3.5,3.501-3.5c1.93,0,3.499,1.57,3.499,3.5C45.898,69.743,44.329,71.312,42.399,71.312z M42.399,66.312  c-0.827,0-1.501,0.673-1.501,1.5c0,0.827,0.674,1.5,1.501,1.5c0.826,0,1.499-0.673,1.499-1.5  C43.898,66.986,43.226,66.312,42.399,66.312z M42.898,86.312h-26c-1.654,0-3-1.346-3-3v-1c0-1.654,1.346-3,3-3h26  c1.654,0,3,1.346,3,3v1C45.898,84.967,44.553,86.312,42.898,86.312z M16.898,81.312c-0.552,0-1,0.449-1,1v1c0,0.551,0.448,1,1,1h26  c0.552,0,1-0.449,1-1v-1c0-0.551-0.448-1-1-1H16.898z M84.898,5.312h-30c-5.5,0-10,4.5-10,10v20c0,5.5,4.5,10,10,10h18.418  l-3.506,7.765c-0.543,1.201-0.205,1.821,0.174,2.13c0.185,0.15,0.439,0.277,0.777,0.277c0.354,0,0.797-0.139,1.343-0.534  l13.356-9.667c5.239-0.295,9.438-4.661,9.438-9.971v-20C94.898,9.812,90.398,5.312,84.898,5.312z M92.898,35.312  c0,4.337-3.472,7.871-7.78,7.989v0.01c-0.202,0.001-0.405,0.044-0.581,0.172l-12.181,8.815l3.428-7.594  c0.228-0.503,0.004-1.096-0.5-1.323c-0.161-0.073-0.329-0.084-0.493-0.07H54.898c-4.411,0-8-3.589-8-8v-20c0-4.411,3.589-8,8-8h30  c4.411,0,8,3.589,8,8V35.312z M85.898,15.312c0-0.552-0.447-1-1-1h-30c-0.553,0-1,0.448-1,1s0.447,1,1,1h30  C85.451,16.312,85.898,15.864,85.898,15.312z M85.898,25.312c0-0.552-0.447-1-1-1h-30c-0.553,0-1,0.448-1,1s0.447,1,1,1h30  C85.451,26.312,85.898,25.864,85.898,25.312z M85.898,35.312c0-0.552-0.447-1-1-1h-30c-0.553,0-1,0.448-1,1s0.447,1,1,1h30  C85.451,36.312,85.898,35.865,85.898,35.312z M44.898,55.312h-14v-6.663c1.44-0.434,2.5-1.757,2.5-3.337c0-1.93-1.57-3.5-3.5-3.5  s-3.5,1.57-3.5,3.5c0,1.58,1.06,2.903,2.5,3.337v6.663h-14c-5.5,0-10,4.5-10,10v20c0,5.5,4.5,10,10,10h30c5.5,0,10-4.5,10-10v-20  C54.898,59.812,50.398,55.312,44.898,55.312z M28.398,45.312c0-0.827,0.673-1.5,1.5-1.5s1.5,0.673,1.5,1.5s-0.673,1.5-1.5,1.5  S28.398,46.14,28.398,45.312z M52.898,85.312c0,4.411-3.589,8-8,8h-30c-4.411,0-8-3.589-8-8v-20c0-4.411,3.589-8,8-8h30  c4.411,0,8,3.589,8,8V85.312z"/><text x="0" y="115" fill="#000000" font-size="5px" font-weight="bold" font-family="'Helvetica Neue', Helvetica, Arial-Unicode, Arial, Sans-serif">Created by Sarah Stenseng</text><text x="0" y="120" fill="#000000" font-size="5px" font-weight="bold" font-family="'Helvetica Neue', Helvetica, Arial-Unicode, Arial, Sans-serif">from the Noun Project</text></svg>